<svg width="512" height="512" viewBox="0 0 512 512" fill="none" xmlns="http://www.w3.org/2000/svg">
  <rect width="512" height="512" rx="112" fill="url(#bg)"/>
  <circle cx="392" cy="108" r="48" fill="#A78BFA" fill-opacity="0.18"/>
  <circle cx="132" cy="404" r="60" fill="#60A5FA" fill-opacity="0.14"/>

  <rect x="96" y="108" width="320" height="288" rx="68" fill="white" fill-opacity="0.98"/>

  <path d="M174 168C174 149.222 189.222 134 208 134H304C322.778 134 338 149.222 338 168V236C338 254.778 322.778 270 304 270H251L212 308V270H208C189.222 270 174 254.778 174 236V168Z" fill="url(#bubble)"/>

  <rect x="200" y="168" width="112" height="16" rx="8" fill="white"/>
  <rect x="200" y="198" width="92" height="14" rx="7" fill="white" fill-opacity="0.92"/>
  <rect x="200" y="224" width="68" height="14" rx="7" fill="white" fill-opacity="0.88"/>

  <rect x="158" y="316" width="196" height="18" rx="9" fill="#DDE7FF"/>
  <rect x="158" y="350" width="150" height="18" rx="9" fill="#DDE7FF"/>
  <rect x="322" y="344" width="38" height="38" rx="12" fill="#EEF2FF"/>
  <path d="M336 372L342 354H348L342 372H336Z" fill="#4F46E5"/>

  <path d="M376 160L382 174L396 180L382 186L376 200L370 186L356 180L370 174L376 160Z" fill="#F8FAFF"/>
  <path d="M138 170L142 180L152 184L142 188L138 198L134 188L124 184L134 180L138 170Z" fill="#C4B5FD"/>
  <path d="M388 294L392 304L402 308L392 312L388 322L384 312L374 308L384 304L388 294Z" fill="#BFDBFE"/>

  <defs>
    <linearGradient id="bg" x1="72" y1="56" x2="440" y2="456" gradientUnits="userSpaceOnUse">
      <stop stop-color="#131A49"/>
      <stop offset="0.55" stop-color="#312E81"/>
      <stop offset="1" stop-color="#6D28D9"/>
    </linearGradient>
    <linearGradient id="bubble" x1="178" y1="140" x2="338" y2="270" gradientUnits="userSpaceOnUse">
      <stop stop-color="#6366F1"/>
      <stop offset="1" stop-color="#8B5CF6"/>
    </linearGradient>
  </defs>
</svg>
